<?xml version="1.0" encoding="UTF-8" standalone="no"?>
<!DOCTYPE svg PUBLIC "-//W3C//DTD SVG 1.1//EN" "http://www.w3.org/Graphics/SVG/1.1/DTD/svg11.dtd">
<svg fill="currentColor" width="100%" height="100%" viewBox="0 0 1331 317" version="1.1" xmlns="http://www.w3.org/2000/svg" xmlns:xlink="http://www.w3.org/1999/xlink" xml:space="preserve" xmlns:serif="http://www.serif.com/" style="fill-rule:evenodd;clip-rule:evenodd;stroke-linejoin:round;stroke-miterlimit:2;">
    <g transform="matrix(1,0,0,1,-514.685,-873.4)">
        <path d="M703.589,1029.69C691.04,1064.2 675.847,1098.3 657.057,1124.05C650.863,1132.54 646.88,1136.71 645.905,1137.73C633.17,1151.08 609.811,1170.76 578.344,1167.21C552.475,1164.29 536.408,1139.84 531.088,1110.56C527.749,1092.19 527.693,1064.81 544.363,1058.35C551.877,1055.44 556.886,1059.14 557.753,1059.78C559.076,1060.76 560.244,1062 561.098,1063.41C561.515,1064.09 563.901,1068.02 562.593,1073.31C562.407,1074.07 561.327,1078.44 556.831,1081.12C556.831,1081.12 556.801,1081.13 556.747,1081.15C553.653,1094.09 560.078,1124.25 573.645,1134.09C577.215,1136.68 580.208,1137.13 585.125,1136.87C604.355,1135.86 618.472,1117.55 622.811,1112.47C651.779,1078.59 674.011,1015.39 686.457,977.087C694.135,953.456 700.217,932.542 705.599,915.747C705.77,915.215 705.914,914.674 706.111,914.152C706.438,913.287 706.746,912.409 707.171,911.588C707.666,910.632 710.575,905.015 717.774,903.293C718.821,903.042 724.972,901.57 730.982,905.891C731.856,906.519 736.991,910.211 737.652,917.582C737.779,919.005 737.681,920.134 737.661,920.355C736.556,933.041 728.913,1015.22 737.744,1046.64C748.094,1037.51 770.86,1012.18 807.585,942.244C815.858,926.491 818.597,920.679 819.494,918.775C826.01,904.95 830.208,895.306 830.349,895.036C830.752,894.263 831.153,893.485 831.651,892.77C835.644,887.037 841.59,886.469 842.599,886.372C849.556,885.707 853.838,889.873 854.565,890.581C859.576,895.455 859.17,901.418 859.101,902.43C858.987,904.116 858.855,904.097 856.375,915.317C849.978,944.263 846.716,963.385 846.062,966.656C832.586,1034.07 831.039,1072.92 832.799,1094.59C839.994,1069.12 851.307,1032.11 869.269,1005.41C906.879,949.492 950.942,972.303 962.165,978.605C965.04,980.219 967.802,981.964 970.401,983.741C970.818,981.878 970.945,979.916 971.738,978.184C972.542,976.428 973.735,974.818 975.147,973.501C976.559,972.185 978.249,971.108 980.056,970.429C980.072,970.423 985.955,969.442 985.964,969.444C987.899,969.908 989.959,970.01 991.768,970.839C993.523,971.643 995.134,972.835 996.45,974.247C997.767,975.659 998.844,977.349 999.523,979.156C1000.81,982.576 1000.6,982.653 1000.46,986.307C998.605,1038.27 992.316,1137.99 940.656,1162.59C912.567,1175.97 884.081,1160.51 875.552,1148.48C867.343,1136.9 864.089,1120.72 862.858,1107.81C858.092,1124.9 855.831,1133.9 851.706,1139.65C841.871,1153.37 820.361,1154.56 808.94,1132.95C794.574,1105.77 799.198,1049.87 805.912,1005.68C789.24,1033.42 778.797,1046.32 776.368,1049.38C767.945,1060.02 758.217,1070.51 748.08,1077.11C736.782,1084.48 720.564,1082.96 711.682,1064.7C708.292,1057.74 705.306,1047.18 703.589,1029.69ZM967.706,1023.18C967.496,1023.03 967.252,1022.85 966.96,1022.64C940.593,1003.98 927.982,1011.67 923.469,1014.69C905.905,1026.48 893.96,1063.92 895.922,1101.27C895.979,1102.35 896.388,1111.36 898.509,1119.45C900.053,1125.34 901.607,1127.99 902.37,1129.2C904.77,1131.44 916.465,1139.24 928.55,1132.4C934.528,1129.02 958.678,1113.08 967.706,1023.18Z"/>
        <path d="M1052.11,1115.55C1049.95,1122.66 1047.6,1129.14 1045.03,1134.81C1041.05,1143.58 1030.83,1163.95 1010.68,1164.19C1004.67,1164.27 991.089,1162.49 981.544,1142.79C964.989,1108.63 966.521,1035.91 969.402,1004.59C969.947,998.665 970.482,994.695 970.719,993.004C970.815,992.318 970.938,992.361 971.418,991.454C973.448,987.614 973.053,987.352 975.86,984.035C976.362,983.442 979.491,979.745 983.788,978.437C983.808,978.431 987.734,978.083 987.741,978.087C991.553,979.88 991.881,979.618 994.31,983.057C995.31,984.474 996.138,986.026 996.778,987.638C997.958,990.613 997.764,990.672 998.383,993.812C998.691,995.376 999.096,996.688 999.096,996.693C999.095,996.708 996.815,1011.31 996.29,1037.47C995.338,1084.93 1000.92,1122.02 1009.32,1133.88C1009.89,1134.68 1010.34,1135.17 1010.65,1135.45C1012.39,1134.39 1015.3,1130.81 1018.29,1124.55C1037.03,1085.33 1044.57,985.939 1046.58,931.541C1046.6,930.816 1046.6,930.089 1046.66,929.366C1046.72,928.554 1046.79,927.737 1046.95,926.939C1047.15,926.01 1048.31,920.549 1054.04,917.419C1054.87,916.965 1059.77,914.29 1065.88,916.611C1066.76,916.948 1071.98,918.932 1074.19,925.079C1074.46,925.847 1074.67,926.64 1074.82,927.444C1074.87,927.737 1075.04,928.717 1075.02,931.156C1074.82,965.164 1067.28,1079.84 1084.11,1126.04C1087.41,1135.1 1091.15,1139.75 1093.54,1139.86C1099.06,1140.14 1114.7,1128.74 1126.85,1108.82C1132,1100.39 1136.13,1091.2 1139.44,1081.57C1140.11,1048.3 1141.9,1001.43 1144.71,934.525C1144.86,931.024 1144.95,927.521 1145.15,924.023C1145.3,921.504 1146.02,919.729 1146.17,919.376C1148.58,913.475 1153.75,911.757 1154.63,911.465C1160.67,909.455 1165.34,912.263 1166.14,912.741C1166.78,913.128 1170.4,915.308 1172.06,920.003C1172.61,921.57 1172.54,921.589 1172.81,923.225C1179.74,964.442 1184.94,1031.78 1166.81,1087.75C1166.73,1092.26 1166.66,1096.51 1166.63,1100.42C1166.56,1108.19 1166.3,1135.43 1168.73,1147.16C1179.78,1141.1 1208.29,1120.79 1230.47,1086.76C1230.18,1035.24 1229.83,998.083 1231.09,976.781C1232.7,949.335 1236.4,933.681 1244.46,906.711C1244.54,906.431 1245.18,904.287 1245.69,903.269C1248.3,897.971 1253.15,896.571 1253.98,896.332C1259.66,894.692 1263.96,897.328 1264.69,897.781C1267.6,899.563 1269.04,902.06 1269.3,902.518C1270.64,904.85 1274.06,915.299 1274.43,916.426C1299.56,993.349 1282.66,1054.76 1255.08,1098.73C1254.91,1113.57 1254.69,1130.81 1254.43,1151.04C1254.32,1159.2 1254.51,1159.21 1254.36,1159.9C1254.04,1161.44 1254,1163.06 1253.39,1164.5C1253.11,1165.16 1251.5,1168.95 1247.02,1170.78C1242.39,1172.66 1238.48,1171 1237.8,1170.71C1233.35,1168.82 1231.79,1165 1231.52,1164.34C1230.93,1162.89 1230.71,1161.29 1230.61,1159.73C1230.57,1159.11 1230.71,1159.08 1230.65,1130.9C1218.47,1144.32 1205.96,1154.99 1195.02,1162.78C1192.23,1164.77 1180.69,1172.88 1173.25,1174.97C1172.23,1175.26 1165.41,1176.9 1158.81,1174.94C1145.31,1170.93 1142.47,1156.33 1141.37,1149.77C1140.84,1146.6 1140.41,1142.92 1140.07,1138.6C1135.86,1143.75 1131.24,1148.58 1126.16,1153.02C1120,1158.42 1101.97,1173.46 1082.52,1165.87C1067.93,1160.19 1058.07,1144.09 1052.11,1115.55ZM1167.53,1152.44C1167.36,1152.56 1167.18,1152.69 1167.01,1152.82C1167.27,1153.68 1167.66,1155.03 1167.74,1155.33C1167.94,1156.14 1168.11,1156.97 1168.32,1157.79L1167.53,1152.44ZM1255.96,1025.77C1259.63,1008.27 1260.85,988.958 1258.42,967.845C1257.67,975.673 1257.14,984.666 1256.71,995.936C1256.37,1005.07 1256.15,1014.05 1255.96,1025.77Z"/>
        <g transform="matrix(1,0,0,1,-2.93985,-12.5401)">
            <path d="M1256.33,1168.79C1257.13,1171.14 1258.45,1173.38 1258.73,1175.83C1258.92,1177.47 1258.15,1179.12 1257.4,1180.59C1257.04,1181.3 1254.95,1185.39 1249.79,1187.03C1244.79,1188.62 1240.81,1186.58 1240.12,1186.22C1239.57,1185.94 1236.74,1184.49 1234.53,1180.88C1232.88,1178.18 1228.78,1171.11 1230.5,1141.08C1232.69,1103.06 1242.07,1070.53 1242.67,1068.39C1242.69,1068.31 1244.67,1061.6 1247.57,1053.75C1254.91,1033.87 1272.16,994.45 1305.03,990.804C1321.5,988.976 1337.15,997.069 1346.8,1006.61C1380.43,1039.86 1364.99,1106.88 1369.69,1141.06C1370.69,1148.32 1372.52,1151.64 1373.4,1151.93C1376.93,1153.11 1389.9,1149.5 1403.69,1140.11C1402.04,1130.5 1401.77,1119.37 1403.21,1106.75C1406.56,1077.65 1419.54,1048.88 1420.33,1047.05C1435.97,1010.87 1446.89,1002.74 1450.61,1000.12C1463.16,991.28 1477.6,995.422 1483.57,1009.81C1492.28,1030.81 1484,1075.81 1464.83,1111.38C1456.35,1127.11 1446.78,1139.39 1437.09,1148.95C1438.53,1151.37 1440.17,1153.19 1441.95,1154.39C1445.5,1156.79 1449.07,1156.42 1454.65,1155.04C1488.59,1146.63 1502.22,1104.86 1510.4,1060.96C1513.01,1046.96 1516.3,1025.39 1516.67,1023.82C1516.85,1023.02 1517.02,1022.21 1517.29,1021.44C1517.61,1020.53 1519.49,1015.22 1525.64,1012.85C1526.54,1012.51 1531.8,1010.48 1537.6,1013.61C1538.44,1014.07 1543.4,1016.74 1544.8,1023.18C1545.08,1024.43 1545.16,1026.7 1545.18,1027.01C1545.96,1047.17 1546.39,1104.63 1560.36,1128C1563.19,1132.72 1566.91,1136.63 1571.57,1135.33C1573.72,1134.73 1580.2,1131.12 1586.75,1113.83C1594.4,1093.63 1598.49,1065.34 1600.32,1043.22C1600.79,1037.53 1601.01,1033.38 1601.01,1033.31C1601.1,1032.55 1601.17,1031.78 1601.35,1031.04C1602.72,1025.1 1607.24,1022.52 1608.02,1022.08C1613.32,1019.07 1618.28,1020.64 1619.13,1020.91C1624.94,1022.75 1627.15,1027.46 1627.53,1028.27C1627.85,1028.96 1628.12,1029.69 1628.33,1030.42C1628.82,1032.15 1628.71,1032.17 1628.91,1033.96C1632.2,1062.71 1637.28,1084.37 1638.29,1088.69C1639.11,1092.22 1644.34,1114.5 1651.51,1128.91C1656.62,1139.2 1660.65,1141.6 1661.57,1141.54C1661.63,1141.53 1663.65,1141.33 1666.19,1138.86C1670.51,1134.67 1679.1,1121.27 1680.92,1079.48C1681.46,1067.07 1681.24,1055.68 1681.11,1050.09C1681.08,1048.86 1679.75,1034.68 1679.62,1033.35C1679.61,1033.23 1679.49,1031.88 1679.49,1031.86C1679.5,1031.7 1679.52,1031.7 1679.63,1029.8C1679.68,1029.06 1679.67,1028.32 1679.77,1027.59C1680.59,1021.85 1684.52,1018.87 1685.2,1018.36C1685.48,1018.15 1687.17,1016.87 1689.02,1016.31C1689.91,1016.04 1698.76,1013.39 1700.16,1013.25C1702,1013.06 1703.83,1012.57 1705.68,1012.68C1709.34,1012.9 1710.47,1013.65 1710.82,1013.88C1714.83,1016.54 1713.6,1017.93 1717.62,1020.59L1715.36,1021.43C1715.39,1025.81 1716.55,1030.14 1716.58,1034.52C1716.58,1035.24 1715.94,1035.84 1715.45,1036.38C1715.23,1036.62 1714,1037.95 1711.66,1037.94C1710.78,1037.93 1709.92,1037.65 1709.06,1037.51C1709.01,1037.5 1708.99,1037.49 1708.18,1037.07C1708.18,1037.37 1708.18,1037.69 1708.17,1038.03C1708.08,1048.09 1708.01,1048.09 1708.08,1050.37C1709.82,1104.74 1704.12,1154.32 1673.48,1167.15C1667.42,1169.68 1647.13,1176.23 1629.9,1148.51C1622.68,1136.91 1617.89,1122.47 1615.39,1113.89C1610.38,1129.66 1603.83,1143.03 1595.39,1151.51C1593.81,1153.1 1581.95,1165.81 1563.33,1162.37C1538.94,1157.88 1529.78,1129.76 1526.17,1116.46C1526.12,1116.24 1526.06,1116.02 1526,1115.8C1516.32,1142.49 1501.27,1166.24 1476,1178.18C1467.15,1182.36 1455.76,1185.45 1446.96,1185.27C1434.2,1185.02 1422.38,1178.9 1414.11,1167.08C1407.18,1171.34 1400.62,1174.41 1394.87,1176.57C1388.36,1179.03 1368.1,1186.25 1353.49,1172.68C1333.29,1153.91 1341.98,1111.18 1339.58,1071.08C1337.74,1040.24 1329.71,1026.62 1315.83,1021.63C1309.12,1019.22 1302.88,1020.49 1295.21,1028.8C1281.03,1044.17 1272.43,1074.74 1271.33,1078.11C1262.89,1103.98 1259.54,1128.25 1258.83,1133.26C1257.04,1145.85 1255.79,1160.9 1257.13,1168.51C1257.15,1168.51 1257.16,1168.5 1257.16,1168.5C1257.16,1168.5 1257.15,1168.51 1257.13,1168.52C1257.03,1168.55 1256.74,1168.64 1256.33,1168.79ZM1255.79,1166.54L1255.84,1166.5L1255.77,1166.42C1255.78,1166.46 1255.78,1166.5 1255.79,1166.54ZM1432.14,1111.25C1441.26,1098.11 1448.22,1083.12 1452.92,1067.92C1456.8,1055.37 1458.06,1044.53 1458.3,1042.46C1458.66,1039.29 1458.86,1036.36 1458.92,1033.74C1451.28,1046.41 1442.13,1067.46 1436.99,1086.21C1434.47,1095.37 1432.92,1103.74 1432.14,1111.25ZM1257.16,1168.5C1257.17,1168.5 1257.17,1168.5 1257.16,1168.5Z"/>
        </g>
        <path d="M1823.84,1043.64C1823.93,1044.16 1823.61,1044.65 1822.73,1045.32C1814.61,1051.47 1807.07,1054.14 1800.3,1055.95C1800.19,1055.98 1794.03,1057.48 1788.76,1057.92C1769.02,1059.54 1749.68,1055.8 1739.56,1053.63C1731.05,1051.8 1725.45,1050.21 1719.69,1048.27C1719.68,1048.27 1719.33,1048.21 1715.62,1046.63C1715.21,1046.46 1712.06,1044.89 1711,1044.27C1700.65,1038.23 1691,1031.1 1691.03,1019.42C1690.86,1019.27 1690.54,1019.45 1690.37,1019.31C1687.28,1016.71 1686.78,1014.84 1686.65,1014.36C1686.51,1013.85 1685.71,1010.85 1690.09,1008.64C1691.14,1008.11 1692.26,1007.62 1693.43,1007.41C1693.45,1007.41 1703.09,1006.27 1703.1,1006.28C1706.33,1006.57 1709.58,1006.67 1712.78,1007.17C1713.96,1007.36 1715.08,1007.81 1716.15,1008.32C1720.58,1010.42 1719.86,1013.43 1719.73,1013.95C1719.57,1014.6 1719.3,1015.22 1718.95,1015.79C1719.79,1015.96 1720.78,1016.14 1721.96,1016.31C1722.71,1016.42 1723.16,1016.55 1724.98,1016.84C1726.86,1017.14 1729.29,1017.77 1729.66,1017.87C1730.02,1017.96 1743.89,1021.38 1751.53,1022.95C1752.64,1023.17 1760.58,1024.76 1766.86,1025.64C1778.72,1027.31 1785.9,1027.08 1787.55,1027.03C1787.82,1027.02 1791.61,1027.08 1796.47,1026.55C1805.08,1025.61 1808.71,1022.71 1812.13,1021.18C1817.36,1018.84 1821.79,1020.64 1822.56,1020.95C1824.11,1021.58 1825.58,1022.52 1826.77,1023.7C1830.7,1027.56 1830.71,1032.24 1830.72,1033.05C1830.73,1036.48 1829.96,1037.64 1829.74,1037.98C1827.35,1041.59 1825.95,1041.18 1823.84,1043.64ZM1822.77,1045.08C1822.75,1045.1 1822.73,1045.13 1822.72,1045.15L1822.79,1045.12L1822.77,1045.08Z"/>
        <path d="M1222.65,994.251C1222.64,995.07 1222.61,999.773 1218.65,1003.68C1217.43,1004.88 1215.96,1005.88 1214.37,1006.53C1211.44,1007.73 1211.36,1007.51 1208.2,1007.54C1193.92,1007.7 1140.64,1008.69 1120.51,1008.45C1104.14,1008.26 1104.14,1008.32 1087.76,1008.04C1050.56,1007.4 1030.67,1007.22 1021.14,1005.77C1016.93,1005.12 1013.88,1004.21 1011.69,1003.55C1009.21,1002.8 1009.18,1002.8 1007.15,1001.18C1006.54,1000.7 1003.05,997.904 1002.44,992.693C1002.35,991.899 1001.82,987.316 1005.2,983.083C1008.47,978.982 1012.92,978.467 1013.69,978.378C1017.28,977.96 1017.26,978.47 1020.79,979.288C1027.96,980.946 1034.29,980.536 1087.74,979.53C1093.15,979.428 1093.15,979.382 1120.55,979.125C1146.06,978.887 1205.66,980.746 1209.35,980.771C1210.16,980.776 1214.87,980.807 1218.78,984.768C1222.68,988.728 1222.65,993.432 1222.65,994.251Z"/>
    </g>
</svg>
